# xmcd CD database file
#
# Track frame offsets:
#	150
#	19942
#	37276
#	54463
#	75110
#	91562
#	107754
#	122329
#	144811
#	163313
#	181640
#	198319
#
# Disc length: 2860 seconds
#
# Revision: 0
# Processed by: cddbd v1.4PL0 Copyright (c) Steve Scherf et al.
# Submitted via: CDex 1.40Release
#
DISCID=890b2a0c
DTITLE=Blues Traveler - Truth Be Told
DYEAR=2003
DGENRE=Blues
TTITLE0=Unable To Get Free
TTITLE1=Eventually (I'll Come Around)
TTITLE2=Sweet And Broken
TTITLE3=My Blessed Pain
TTITLE4=Let Her and Let Go
TTITLE5=Thinnest Of Air
TTITLE6=Can't See Why
TTITLE7=Stumble And Fall
TTITLE8=This Ache
TTITLE9=Mount Normal
TTITLE10=The One
TTITLE11=Partner In Crime
EXTD=YEAR: 2003 ID3G: 0
EXTT0=
EXTT1=
EXTT2=
EXTT3=
EXTT4=
EXTT5=
EXTT6=
EXTT7=
EXTT8=
EXTT9=
EXTT10=
EXTT11=
PLAYORDER=
